 
	
	
	<svg  fill="#FFFFFF" class="icon" viewBox="0 0 1024 1024" version="1.1" xmlns="http://www.w3.org/2000/svg" ><path d="M928 128H96C43 128 0 171 0 224v576c0 53 43 96 96 96h832c53 0 96-43 96-96V224c0-53-43-96-96-96z m32 672c0 17.64-14.36 32-32 32H96c-17.64 0-32-14.36-32-32V224c0-17.64 14.36-32 32-32h832c17.64 0 32 14.36 32 32v576z m-144-480h-32c-8.84 0-16 7.16-16 16v129.76c-18.9-11-40.56-17.76-64-17.76-70.7 0-128 57.3-128 128s57.3 128 128 128c23.44 0 45.1-6.76 64-17.76v1.76c0 8.84 7.16 16 16 16h32c8.84 0 16-7.16 16-16V336c0-8.84-7.16-16-16-16z m-112 320c-35.28 0-64-28.72-64-64s28.72-64 64-64 64 28.72 64 64-28.72 64-64 64zM393.94 330.26a16.014 16.014 0 0 0-14.94-10.26h-54.02c-6.62 0-12.56 4.08-14.94 10.26l-135.38 352C170.62 692.74 178.36 704 189.6 704h34.3c6.62 0 12.56-4.08 14.94-10.26L284.14 576h135.72l45.28 117.74a16.014 16.014 0 0 0 14.94 10.26h34.3c11.24 0 18.96-11.26 14.94-21.74l-135.38-352zM308.74 512L352 399.54 395.26 512h-86.52z"></path></svg>